<?xml version="1.0" encoding="iso-8859-1"?>
<!-- Generator: Adobe Illustrator 19.0.0, SVG Export Plug-In . SVG Version: 6.00 Build 0)  -->
<svg version="1.1" id="Layer_1" xmlns="http://www.w3.org/2000/svg" xmlns:xlink="http://www.w3.org/1999/xlink" x="0px" y="0px"
	 viewBox="0 0 512 512" style="enable-background:new 0 0 512 512;" xml:space="preserve">
<g transform="translate(1 1)">
	<g>
		<path style="fill:#E2E3E5;" d="M378.429,383c-2.743,0-4.571-0.914-6.4-2.743c-3.657-3.657-3.657-9.143,0-12.8l109.714-109.714
			c3.657-3.657,9.143-3.657,12.8,0s3.657,9.143,0,12.8L384.829,380.257C383,382.086,381.171,383,378.429,383z"/>
		<path style="fill:#E2E3E5;" d="M488.143,273.286H186.429c-5.486,0-9.143-3.657-9.143-9.143s3.657-9.143,9.143-9.143h301.714
			c5.486,0,9.143,3.657,9.143,9.143S493.629,273.286,488.143,273.286z"/>
	</g>
	<polygon style="fill:#CCCCCC;" points="131.571,501.857 332.714,501.857 332.714,8.143 131.571,8.143 	"/>
	<polygon style="fill:#FFFFFF;" points="21.857,501.857 223,501.857 223,8.143 21.857,8.143 	"/>
	<polygon style="fill:#E2E3E5;" points="49.286,501.857 305.286,501.857 305.286,8.143 49.286,8.143 	"/>
	<g>
		<path style="fill:#B6B6B6;" d="M378.429,373.857c-2.743,0-4.571-0.914-6.4-2.743c-3.657-3.657-3.657-9.143,0-12.8L481.743,248.6
			c3.657-3.657,9.143-3.657,12.8,0s3.657,9.143,0,12.8L384.829,371.114C383,372.943,381.171,373.857,378.429,373.857z"/>
		<path style="fill:#B6B6B6;" d="M488.143,264.143c-2.743,0-4.571-0.914-6.4-2.743L372.029,151.686c-3.657-3.657-3.657-9.143,0-12.8
			c3.657-3.657,9.143-3.657,12.8,0L494.543,248.6c3.657,3.657,3.657,9.143,0,12.8C492.714,263.229,490.886,264.143,488.143,264.143z
			"/>
		<path style="fill:#B6B6B6;" d="M488.143,264.143H186.429c-5.486,0-9.143-3.657-9.143-9.143c0-5.486,3.657-9.143,9.143-9.143
			h301.714c5.486,0,9.143,3.657,9.143,9.143C497.286,260.486,493.629,264.143,488.143,264.143z"/>
		<path style="fill:#B6B6B6;" d="M332.714,511H21.857c-5.486,0-9.143-3.657-9.143-9.143V8.143C12.714,2.657,16.371-1,21.857-1
			h310.857c5.486,0,9.143,3.657,9.143,9.143v192c0,5.486-3.657,9.143-9.143,9.143c-5.486,0-9.143-3.657-9.143-9.143V17.286H31
			v475.429h292.571V309.857c0-5.486,3.657-9.143,9.143-9.143c5.486,0,9.143,3.657,9.143,9.143v192
			C341.857,507.343,338.2,511,332.714,511z"/>
	</g>
</g>
<g>
</g>
<g>
</g>
<g>
</g>
<g>
</g>
<g>
</g>
<g>
</g>
<g>
</g>
<g>
</g>
<g>
</g>
<g>
</g>
<g>
</g>
<g>
</g>
<g>
</g>
<g>
</g>
<g>
</g>
</svg>
